<svg width="23" height="24" viewBox="0 0 23 24" fill="none" xmlns="http://www.w3.org/2000/svg">
<g id="fi_273177" clip-path="url(#clip0_1507_280)">
<path id="Vector" d="M22.2068 22.7065H0.792969V3.07719C0.792969 2.96767 0.881734 2.87891 0.991254 2.87891H22.0085C22.118 2.87891 22.2068 2.96767 22.2068 3.07719V22.7065Z" fill="#FFD782"/>
<g id="Group">
<path id="Vector_2" d="M22.2068 19.1387H0.792969V22.3111H22.2068V19.1387Z" fill="#FFAF5F"/>
<path id="Vector_3" d="M22.207 9.98398C22.1258 10.0042 22.0422 10.0181 21.9547 10.0181C21.3773 10.0181 20.9092 9.55004 20.9092 8.97266C20.9092 9.54999 20.4411 10.0181 19.8637 10.0181C19.2864 10.0181 18.8183 9.55004 18.8183 8.97266C18.8183 9.54999 18.3502 10.0181 17.7728 10.0181C17.1954 10.0181 16.7273 9.55004 16.7273 8.97266C16.7273 9.54999 16.2593 10.0181 15.6819 10.0181C15.1045 10.0181 14.6364 9.55004 14.6364 8.97266C14.6364 9.54999 14.1683 10.0181 13.5909 10.0181C13.0136 10.0181 12.5455 9.55004 12.5455 8.97266C12.5455 9.54999 12.0774 10.0181 11.5 10.0181C10.9226 10.0181 10.4545 9.55004 10.4545 8.97266C10.4545 9.54999 9.98646 10.0181 9.40907 10.0181C8.83169 10.0181 8.36361 9.55004 8.36361 8.97266C8.36361 9.54999 7.89557 10.0181 7.31814 10.0181C6.74076 10.0181 6.27267 9.55004 6.27267 8.97266C6.27267 9.54999 5.80459 10.0181 5.22721 10.0181C4.64983 10.0181 4.18174 9.55004 4.18174 8.97266C4.18174 9.54999 3.71365 10.0181 3.13627 10.0181C2.55889 10.0181 2.09081 9.55004 2.09081 8.97266C2.09081 9.54999 1.62277 10.0181 1.04534 10.0181C0.957832 10.0181 0.874232 10.0042 0.792969 9.98398V10.7857C0.876254 10.7973 0.95891 10.8113 1.04534 10.8113C1.43342 10.8113 1.79378 10.6904 2.09081 10.4844C2.38792 10.6904 2.74824 10.8112 3.13636 10.8112C3.52444 10.8112 3.88481 10.6904 4.18183 10.4843C4.47885 10.6904 4.83922 10.8112 5.2273 10.8112C5.61538 10.8112 5.97574 10.6904 6.27276 10.4843C6.56979 10.6904 6.93015 10.8112 7.31823 10.8112C7.70631 10.8112 8.06667 10.6904 8.3637 10.4843C8.66072 10.6904 9.02108 10.8112 9.40916 10.8112C9.79725 10.8112 10.1576 10.6904 10.4546 10.4843C10.7516 10.6904 11.112 10.8112 11.5001 10.8112C11.8881 10.8112 12.2485 10.6904 12.5455 10.4843C12.8425 10.6904 13.2029 10.8112 13.591 10.8112C13.9791 10.8112 14.3394 10.6904 14.6365 10.4843C14.9335 10.6904 15.2938 10.8112 15.6819 10.8112C16.07 10.8112 16.4304 10.6904 16.7274 10.4843C17.0244 10.6904 17.3848 10.8112 17.7729 10.8112C18.1609 10.8112 18.5213 10.6904 18.8183 10.4843C19.1153 10.6904 19.4757 10.8112 19.8638 10.8112C20.2519 10.8112 20.6122 10.6904 20.9093 10.4843C21.2063 10.6904 21.5666 10.8112 21.9547 10.8112C22.0411 10.8112 22.1238 10.7973 22.2071 10.7857V9.98398H22.207Z" fill="#FFAF5F"/>
</g>
<g id="Group_2">
<path id="Vector_4" d="M13.8787 12.3965H2.77539V20.3274H13.8787V12.3965Z" fill="#B4E1FA"/>
<path id="Vector_5" d="M20.2234 12.3965H15.4648V20.3274H20.2234V12.3965Z" fill="#B4E1FA"/>
</g>
<path id="Vector_6" d="M20.2244 12.3965H15.4658V13.5862H20.2244V12.3965Z" fill="#A0D2F0"/>
<path id="Vector_7" d="M20.2242 16.0976L17.4484 12.3965H16.6553L20.2242 17.1551V16.0976Z" fill="#DAF0FD"/>
<path id="Vector_8" d="M15.8623 12.3965H15.4658V13.9827L20.2244 20.3275V18.2125L15.8623 12.3965Z" fill="#A0D2F0"/>
<path id="Vector_9" d="M18.3406 13.5861L17.4484 12.3965H16.6553L17.5475 13.5861H18.3406Z" fill="#B4E1FA"/>
<path id="Vector_10" d="M12.6896 20.3275H11.8965L5.94824 12.3965H6.74134L12.6896 20.3275Z" fill="#DAF0FD"/>
<g id="Group_3">
<path id="Vector_11" d="M11.1028 20.3275H9.51664L3.56836 12.3965H5.1546L11.1028 20.3275Z" fill="#A0D2F0"/>
<path id="Vector_12" d="M13.8787 12.3965H2.77539V13.5862H13.8787V12.3965Z" fill="#A0D2F0"/>
</g>
<path id="Vector_13" d="M7.63358 13.5861L6.74134 12.3965H5.94824L6.84048 13.5861H7.63358Z" fill="#B4E1FA"/>
<g id="Group_4">
<path id="Vector_14" d="M9.40875 10.0179C8.83137 10.0179 8.36328 9.54983 8.36328 8.97245V8.03516H10.4542V8.97245C10.4542 9.54983 9.98613 10.0179 9.40875 10.0179Z" fill="#D2555A"/>
<path id="Vector_15" d="M13.5914 10.0179C13.014 10.0179 12.5459 9.54983 12.5459 8.97245V8.03516H14.6368V8.97245C14.6368 9.54983 14.1687 10.0179 13.5914 10.0179Z" fill="#D2555A"/>
<path id="Vector_16" d="M5.22711 10.0179C4.64973 10.0179 4.18164 9.54983 4.18164 8.97245V8.03516H6.27257V8.97245C6.27253 9.54983 5.80449 10.0179 5.22711 10.0179Z" fill="#D2555A"/>
<path id="Vector_17" d="M1.04547 10.0179C0.468086 10.0179 0 9.54983 0 8.97245V8.03516H2.09093V8.97245C2.09093 9.54983 1.62285 10.0179 1.04547 10.0179Z" fill="#D2555A"/>
<path id="Vector_18" d="M17.773 10.0179C17.1956 10.0179 16.7275 9.54983 16.7275 8.97245V8.03516H18.8185V8.97245C18.8185 9.54983 18.3504 10.0179 17.773 10.0179Z" fill="#D2555A"/>
</g>
<g id="Group_5">
<path id="Vector_19" d="M7.31793 10.0179C6.74055 10.0179 6.27246 9.54983 6.27246 8.97245V8.03516H8.36339V8.97245C8.36339 9.54983 7.89535 10.0179 7.31793 10.0179Z" fill="#C7CFE2"/>
<path id="Vector_20" d="M15.6812 10.0179C15.1038 10.0179 14.6357 9.54983 14.6357 8.97245V8.03516H16.7267V8.97245C16.7267 9.54983 16.2586 10.0179 15.6812 10.0179Z" fill="#C7CFE2"/>
</g>
<path id="Vector_21" d="M21.9546 10.0179C21.3773 10.0179 20.9092 9.54983 20.9092 8.97245V8.03516H23.0001V8.97245C23.0001 9.54983 22.532 10.0179 21.9546 10.0179Z" fill="#D2555A"/>
<g id="Group_6">
<path id="Vector_22" d="M19.8638 10.0179C19.2864 10.0179 18.8184 9.54983 18.8184 8.97245V8.03516H20.9093V8.97245C20.9092 9.54983 20.4412 10.0179 19.8638 10.0179Z" fill="#C7CFE2"/>
<path id="Vector_23" d="M3.13629 10.0179C2.55891 10.0179 2.09082 9.54983 2.09082 8.97245V8.03516H4.18175V8.97245C4.18175 9.54983 3.71367 10.0179 3.13629 10.0179Z" fill="#C7CFE2"/>
<path id="Vector_24" d="M11.4996 10.0179C10.9222 10.0179 10.4541 9.54983 10.4541 8.97245V8.03516H12.545V8.97245C12.545 9.54983 12.0769 10.0179 11.4996 10.0179Z" fill="#C7CFE2"/>
</g>
<g id="Group_7">
<path id="Vector_25" d="M10.4542 8.03376H8.36328L8.57958 4.86133H10.5263L10.4542 8.03376Z" fill="#FF6464"/>
<path id="Vector_26" d="M14.6367 8.03376H12.5458L12.4736 4.86133H14.4204L14.6367 8.03376Z" fill="#FF6464"/>
<path id="Vector_27" d="M6.27253 8.03376H4.18164L4.68634 4.86133H6.63303L6.27253 8.03376Z" fill="#FF6464"/>
<path id="Vector_28" d="M2.09093 8.03376H0L0.793096 4.86133H2.73983L2.09093 8.03376Z" fill="#FF6464"/>
<path id="Vector_29" d="M18.8186 8.03376H16.7277L16.3672 4.86133H18.3139L18.8186 8.03376Z" fill="#FF6464"/>
</g>
<g id="Group_8">
<path id="Vector_30" d="M8.36339 8.03376H6.27246L6.63296 4.86133H8.57969L8.36339 8.03376Z" fill="#EFF2FA"/>
<path id="Vector_31" d="M16.7272 8.03376H14.6362L14.4199 4.86133H16.3667L16.7272 8.03376Z" fill="#EFF2FA"/>
</g>
<path id="Vector_32" d="M22.9996 8.03376H20.9087L20.2598 4.86133H22.2065L22.9996 8.03376Z" fill="#FF6464"/>
<g id="Group_9">
<path id="Vector_33" d="M20.9091 8.03376H18.8182L18.3135 4.86133H20.2602L20.9091 8.03376Z" fill="#EFF2FA"/>
<path id="Vector_34" d="M4.18171 8.03376H2.09082L2.73972 4.86133H4.68641L4.18171 8.03376Z" fill="#EFF2FA"/>
<path id="Vector_35" d="M12.545 8.03376H10.4541L10.5262 4.86133H12.4729L12.545 8.03376Z" fill="#EFF2FA"/>
</g>
<g id="Group_10">
<path id="Vector_36" d="M13.4824 12.7931V19.931H3.17205V12.7931H13.4824ZM13.879 12H2.77548C2.55648 12 2.37891 12.1776 2.37891 12.3966V20.3276C2.37891 20.5466 2.55648 20.7242 2.77548 20.7242H13.8789C14.0979 20.7242 14.2755 20.5466 14.2755 20.3276V12.3966C14.2755 12.1776 14.0979 12 13.879 12Z" fill="#8F96AC"/>
<path id="Vector_37" d="M20.2235 12H15.4649C15.2459 12 15.0684 12.1776 15.0684 12.3966V22.3104H20.6201V12.3966C20.6201 12.1776 20.4425 12 20.2235 12ZM19.827 19.931H15.8615V12.7931H19.827V19.931Z" fill="#8F96AC"/>
</g>
<path id="Vector_38" d="M17.845 4.86196H5.1554C4.71737 4.86196 4.3623 4.5069 4.3623 4.06887V1.68958C4.3623 1.25155 4.71737 0.896484 5.1554 0.896484H17.8451C18.2831 0.896484 18.6382 1.25155 18.6382 1.68958V4.06891C18.6382 4.5069 18.2831 4.86196 17.845 4.86196Z" fill="#AFB9D2"/>
<path id="Vector_39" d="M17.6467 4.06874H5.35356C5.24404 4.06874 5.15527 3.97997 5.15527 3.87045V1.88774C5.15527 1.77822 5.24404 1.68945 5.35356 1.68945H17.6467C17.7562 1.68945 17.8449 1.77822 17.8449 1.88774V3.8705C17.8449 3.97997 17.7562 4.06874 17.6467 4.06874Z" fill="#FFD782"/>
<path id="Vector_40" d="M5.35356 4.06951H17.6467C17.7562 4.06951 17.8449 3.98074 17.8449 3.87122V3.07812C17.8449 3.18764 17.7562 3.27641 17.6467 3.27641H5.35356C5.24404 3.27641 5.15527 3.18764 5.15527 3.07812V3.87122C5.15532 3.98074 5.24408 4.06951 5.35356 4.06951Z" fill="#FFAF5F"/>
<path id="Vector_41" d="M22.8017 23.1037H0.198285C0.0887656 23.1037 0 23.0149 0 22.9054V22.5088C0 22.3993 0.0887656 22.3105 0.198285 22.3105H22.8017C22.9112 22.3105 23 22.3993 23 22.5088V22.9054C23 23.0149 22.9112 23.1037 22.8017 23.1037Z" fill="#8F96AC"/>
</g>
<defs>
<clipPath id="clip0_1507_280">
<rect width="23" height="23" fill="white" transform="translate(0 0.5)"/>
</clipPath>
</defs>
</svg>
