<svg width="74" height="74" viewBox="0 0 74 74" fill="none" xmlns="http://www.w3.org/2000/svg">
<path d="M43.3862 30.7581H31.117V27.9646C31.117 26.3376 31.7633 24.7772 32.9138 23.6268C34.0643 22.4763 35.6246 21.83 37.2516 21.83C38.8786 21.83 40.439 22.4763 41.5894 23.6268C42.7399 24.7772 43.3862 26.3376 43.3862 27.9646V30.7581ZM48.2295 36.5338V49.3543C48.2276 50.1005 47.9303 50.8155 47.4026 51.3431C46.875 51.8708 46.16 52.168 45.4138 52.17H28.5899C27.8431 52.169 27.1271 51.8722 26.5987 51.3444C26.0703 50.8167 25.7725 50.1011 25.7705 49.3543V36.5338C25.7715 35.7867 26.069 35.0705 26.5976 34.5426C27.1262 34.0146 27.8428 33.7181 28.5899 33.7181H45.4138C46.1603 33.7191 46.8759 34.016 47.4037 34.5439C47.9316 35.0717 48.2285 35.7873 48.2295 36.5338ZM38.48 40.6556C38.48 40.2631 38.3241 39.8866 38.0465 39.6091C37.769 39.3315 37.3925 39.1756 37 39.1756C36.6075 39.1756 36.231 39.3315 35.9535 39.6091C35.6759 39.8866 35.52 40.2631 35.52 40.6556V45.2325C35.52 45.625 35.6759 46.0015 35.9535 46.279C36.231 46.5566 36.6075 46.7125 37 46.7125C37.3925 46.7125 37.769 46.5566 38.0465 46.279C38.3241 46.0015 38.48 45.625 38.48 45.2325V40.6556ZM74 37C74 44.3179 71.83 51.4715 67.7644 57.5561C63.6988 63.6407 57.9202 68.3831 51.1593 71.1835C44.3984 73.984 36.959 74.7167 29.7817 73.289C22.6044 71.8614 16.0116 68.3375 10.8371 63.1629C5.66252 57.9884 2.13861 51.3956 0.710961 44.2183C-0.716692 37.041 0.0160314 29.6016 2.81647 22.8407C5.61692 16.0798 10.3593 10.3012 16.4439 6.23562C22.5285 2.17001 29.6821 0 37 0C46.813 0 56.2241 3.8982 63.163 10.837C70.1018 17.7759 74 27.187 74 37ZM51.1895 36.5338C51.1874 35.1648 50.6994 33.841 49.8125 32.7981C48.9255 31.7553 47.6971 31.0612 46.3462 30.8395V27.9646C46.3462 25.5526 45.388 23.2393 43.6825 21.5337C41.9769 19.8282 39.6636 18.87 37.2516 18.87C34.8396 18.87 32.5263 19.8282 30.8208 21.5337C29.1152 23.2393 28.157 25.5526 28.157 27.9646V30.7766C26.7046 30.8866 25.3472 31.5405 24.356 32.6079C23.3648 33.6752 22.8129 35.0772 22.8105 36.5338V49.3543C22.8125 50.8861 23.4221 52.3546 24.5056 53.4375C25.5892 54.5203 27.0581 55.129 28.5899 55.13H45.4138C46.945 55.128 48.4129 54.5189 49.4957 53.4362C50.5784 52.3534 51.1875 50.8855 51.1895 49.3543V36.5338Z" fill="url(#paint0_linear_628_779)"/>
<defs>
<linearGradient id="paint0_linear_628_779" x1="10.8373" y1="10.8373" x2="63.1627" y2="63.1627" gradientUnits="userSpaceOnUse">
<stop stop-color="#0BBD6A"/>
<stop offset="1" stop-color="#039D55"/>
</linearGradient>
</defs>
</svg>
