<svg width="20" height="20" viewBox="0 0 20 20" fill="none" xmlns="http://www.w3.org/2000/svg">
<path d="M14.44 14.4365L12.646 13.5395C12.4026 13.4185 12.1348 13.3549 11.863 13.3535H8.13698C7.8652 13.3549 7.59733 13.4185 7.35398 13.5395L5.55998 14.4365C5.3122 14.5274 5.12564 14.7353 5.06197 14.9915L4.37496 18.6425C4.34271 18.8042 4.4477 18.9615 4.60944 18.9937C4.62905 18.9977 4.64898 18.9996 4.66897 18.9995H7.03597V16.5785C7.03597 16.4128 7.17028 16.2785 7.33597 16.2785C7.50166 16.2785 7.63596 16.4128 7.63596 16.5785V18.9995H12.364V16.5785C12.364 16.4128 12.4983 16.2785 12.664 16.2785C12.8296 16.2785 12.9639 16.4128 12.9639 16.5785V18.9995H15.331C15.4959 19.0001 15.6301 18.867 15.6307 18.702C15.6308 18.682 15.6289 18.6621 15.625 18.6425L14.932 14.9705C14.8653 14.7227 14.6815 14.5232 14.44 14.4365Z" fill="#006161"/>
<path d="M13.1895 3.40897C12.8805 3.27997 12.6225 3.48698 12.3495 3.70599C11.7524 4.2938 10.8748 4.49463 10.0815 4.22498C8.87547 3.89198 6.75747 3.92198 6.21446 5.42499C5.92269 6.33154 6.20289 7.32463 6.92548 7.94498C6.90747 8.97999 7.31249 10.828 8.30549 11.887C9.09313 12.8231 10.4905 12.9435 11.4267 12.1558C11.5238 12.0741 11.6137 11.9841 11.6955 11.887C12.6915 10.825 13.0965 8.96801 13.0755 7.93601C13.7985 7.23999 14.0235 5.803 13.8645 4.69302C13.7955 4.20399 13.6214 3.58599 13.1895 3.40897ZM8.03245 8.23597C8.67489 8.06335 9.35682 8.11302 9.96744 8.37696C10.3625 8.57161 10.7961 8.67517 11.2365 8.67997C11.6657 8.67912 12.0878 8.56973 12.4635 8.36196C12.4351 8.6896 12.3809 9.01448 12.3014 9.33359H7.69947C7.60872 8.97692 7.55245 8.61237 7.53146 8.24494C7.69715 8.27799 7.86804 8.27494 8.03245 8.23597ZM11.2575 11.476C10.6959 12.1702 9.67799 12.2778 8.98377 11.7163C8.89543 11.6448 8.81491 11.5643 8.74346 11.476C8.35083 11.0276 8.05557 10.5025 7.87645 9.93398V9.93364H12.1245V9.93398C11.9453 10.5025 11.6501 11.0276 11.2575 11.476Z" fill="#006161"/>
<path d="M4.95683 9.77038C4.97471 9.93503 5.12261 10.0541 5.28729 10.0363C5.64471 9.99745 6.02002 9.96299 6.41083 9.93343C6.5762 9.92314 6.70191 9.78074 6.69162 9.61536C6.68133 9.44999 6.53892 9.32428 6.37355 9.33457C6.37098 9.33473 6.3684 9.33492 6.36583 9.33517C5.96799 9.36536 5.58625 9.40035 5.22299 9.43979C5.05825 9.45752 4.9391 9.60545 4.95683 9.77019C4.95679 9.77023 4.95679 9.77029 4.95683 9.77038Z" fill="#006161"/>
<path d="M13.3124 9.6113C13.2999 9.77652 13.4236 9.92061 13.5889 9.93313H13.589C13.9798 9.96273 14.3551 9.99715 14.7125 10.036C14.8775 10.0519 15.024 9.9311 15.0399 9.76616C15.0556 9.60389 14.9388 9.45882 14.7769 9.43946C14.4137 9.40005 14.0319 9.36503 13.6341 9.33484C13.469 9.32244 13.3249 9.44618 13.3124 9.6113Z" fill="#006161"/>
<path d="M10 1C9.63263 1 1 1.01993 1 2.7464V10.9498C1 11.3407 1.33046 11.9087 4.1881 12.3294C4.35203 12.3535 4.50445 12.2401 4.52855 12.0762C4.53068 12.0618 4.53175 12.0472 4.53175 12.0327V3.82921C4.53175 3.6804 4.42264 3.55407 4.2754 3.53241C2.23625 3.23201 1.65585 2.85884 1.59999 2.76319V2.75783C1.77581 2.341 4.72257 1.60002 10 1.60002C15.2881 1.60002 18.2371 2.34401 18.4021 2.73234C18.3546 2.85215 17.781 3.22938 15.7246 3.53245C15.5774 3.5541 15.4683 3.6804 15.4683 3.82924V12.0327C15.4683 12.1983 15.6026 12.3326 15.7682 12.3326C15.7829 12.3326 15.7974 12.3315 15.8119 12.3294C18.6695 11.9087 19 11.3407 19 10.9498V2.7464C19 1.01993 10.3674 1 10 1ZM3.93176 4.08675V11.6822C2.15401 11.3901 1.64279 11.0494 1.60002 10.9498C1.60002 10.9463 1.64502 10.6027 3.26057 10.2947C3.42334 10.2637 3.53009 10.1065 3.49903 9.94377C3.46796 9.781 3.31084 9.67424 3.14807 9.70531C2.61222 9.78878 2.09096 9.9481 1.60002 10.1785V3.46407C2.34257 3.78471 3.12821 3.99449 3.93176 4.08675ZM16.0682 11.6822V4.08675C16.8718 3.99449 17.6574 3.78471 18.4 3.4641V10.1785C17.909 9.94807 17.3878 9.78875 16.852 9.70531C16.6892 9.67424 16.5321 9.781 16.501 9.94377C16.47 10.1065 16.5767 10.2637 16.7395 10.2947C18.2268 10.5781 18.3829 10.8919 18.4 10.9317V10.9395C18.3466 11.0556 17.8288 11.3928 16.0682 11.6822Z" fill="#006161"/>
</svg>
