<svg width="20" height="20" viewBox="0 0 20 20" fill="none" xmlns="http://www.w3.org/2000/svg">
<path d="M14.9997 18.3327C15.4417 18.3327 15.8656 18.1571 16.1782 17.8445C16.4907 17.532 16.6663 17.108 16.6663 16.666V3.33268C16.6663 2.89065 16.4907 2.46673 16.1782 2.15417C15.8656 1.84161 15.4417 1.66602 14.9997 1.66602H9.99967V7.49935L7.91634 6.24935L5.83301 7.49935V1.66602H4.99967C4.55765 1.66602 4.13372 1.84161 3.82116 2.15417C3.5086 2.46673 3.33301 2.89065 3.33301 3.33268V16.666C3.33301 17.108 3.5086 17.532 3.82116 17.8445C4.13372 18.1571 4.55765 18.3327 4.99967 18.3327H14.9997Z" fill="#006161"/>
</svg>
